<?xml version="1.0" encoding="utf-8"?>
<!-- Generator: Adobe Illustrator 24.0.2, SVG Export Plug-In . SVG Version: 6.00 Build 0)  -->
<svg version="1.1" id="Calque_1" xmlns="http://www.w3.org/2000/svg" xmlns:xlink="http://www.w3.org/1999/xlink" x="0px" y="0px"
	 viewBox="0 0 596.5 350.6" style="enable-background:new 0 0 596.5 350.6;" xml:space="preserve">
<style type="text/css">
	.st0{fill:#FFFFFF;}
</style>
<path class="st0" d="M478.2,107.9L478.2,107.9c0.5,0,1.1,0,1.7,0c10.1-1.1,17.5-13.5,16.5-22.9c-0.4-3.8-3.5-6.6-7.6-6.9
	c-0.5,0-1,0-1.5,0c-4.5,0.5-9.3,3-13,6.9c-3.9,4.1-5.9,9-5.4,13.5C469.6,103.9,473.3,107.6,478.2,107.9"/>
<path class="st0" d="M301.1,114.6c0.2,0.7,0.6,1,1.1,1.1c0.2,0,0.5,0,0.8-0.2c28.4-11.7,45.2-13.2,52.3-13.8
	c1.6-0.1,2.7-0.3,3.5-0.4c0.3,0,1.1-0.1,1.7-0.9c0.5-0.6,0.6-1.5,0.3-2.6c-0.4-1.6-3.3-14.6-3.3-14.8c0-0.1-0.8-2.4-3.7-2.5
	c-1.2-0.1-2.5,0.3-4,0.9c-1.7,0.8-41.8,18.3-49.1,23.4c-1.6,1.1-1.1,2.6-1,3.2C299.8,108.2,300.6,112.1,301.1,114.6"/>
<g>
	<path class="st0" d="M563.7,148.1l-0.8,1c-0.2,0.3-21.3,26.7-43.9,30.6c-1.4,0.2-2.8,0.3-4.1,0.3c-5-0.3-8.8-2.8-9.9-6.6
		c42.8-31.4,50.6-44.7,49.4-55.9c-0.7-6.2-5.1-9.7-12.9-10.1c-1.7-0.1-3.5,0-5.4,0.2c-24.8,2.5-50.5,27.4-55.1,53.3
		c-0.6,4.7-0.7,9.1-0.7,9.2c0,0.8,0.2,1.8,0.4,3.1c-7,4.1-15.6,8.3-19.5,8.7c-4.4,0.5-7.4-0.4-8.7-2.6c-1.4-2.2-1.1-5.7,0.7-9.8
		l23.4-45.4c0.1-0.2,0.8-1.2,0.5-2.1c-0.1-0.4-0.5-0.8-1.3-1c-0.5-0.1-3.4-0.3-5.2-0.3c-4.3-0.2-11.6-0.5-14.1-0.5
		c-4.2,0.1-8.2,8.8-16,26.1c-1.3,2.8-2.6,5.7-4.1,8.9c-3.4,8-19.5,19.8-26.3,20.5c-2.9,0.3-6.6-1.6-6.9-4.9
		c-1-9.3,9.9-22.1,14.7-27.1l0.3-0.3c4.6-4.7,8.6-8.8,7.8-16.1c-0.9-4.3-3-7.8-6.9-11.7c-0.6-0.6-1.5-0.9-2.7-0.9
		c-3.7-0.2-10.6,1.6-21.1,4.4c-3.4,0.9-7.2,1.9-11.3,2.9c0.5-1.7,0.8-3.6,0.6-5.6c-0.3-2.4-2.6-4.3-5.3-4
		c-6.2,0.7-27.4,20.1-25.6,36.4c0.4,4,1.6,6.6,6.2,6.9c-4.2,5.3-23.5,28.3-43.6,31.8c-1.3,0.2-2.5,0.3-3.7,0.2
		c-5-0.3-10.3-3-10.7-9.7c46.3-27.3,51-42.5,49.9-52.7c-0.7-6.2-5.2-9.8-12.7-10.2c-1.8-0.1-3.7,0-5.6,0.3
		c-23,3.4-36.7,17.2-44.1,28.1c-8.6,12.7-12.1,26.2-11.7,33.7c-1,0.5-1.9,1-2.7,1.4c-5.7,3-8.8,4.7-15.1,6.3
		c-0.5,0.1-0.9,0.2-1.4,0.1c-1.8-0.1-2.8-1.3-3.1-1.7c-2.1-2.8,2.3-10.7,4.3-13.6l8.5-13.5l0.8-1.1c3.1-4.5,9.6-13.8,9.2-18
		c-0.6-5.1-9.3-8.7-15.4-9c-0.8,0-1.5,0-2.1,0c-11.7,1.3-40.8,31.6-50.9,42.4L262.5,68c0.2-0.5,6.1-11.2,4-16.5
		c-0.5-1.3-1.5-2.2-2.9-2.7c-1.5-0.4-3.3-0.7-5.2-0.8c-3.8-0.2-7.8,0.3-11,1.4c-5.1,1.7-9.2,9-10.7,12c-2.6,5.2-6.3,13.6-10.6,23.4
		c-11.2,25.4-26.5,60.2-39.9,79.3c-8.3,14-58.3,53.9-80.9,56.4c-1.9,0.2-3.8,0.3-5.6,0.2c-12-0.6-18.9-8.2-20.4-22.5
		c-1.8-16.8,6.7-42.8,20.7-63.3c39-57.3,64.1-67.7,73-69.5h0.2c0.6-0.1,1.2-0.2,1.8-0.1c1.4,0.1,3.7,0.6,4,3.4
		c0.8,7.1-17.4,36.6-30.9,50.2c-13.3,13.4-24.6,21.5-24.7,21.6c-6.2,5-14.4,12.4-13.5,19.1c0.8,5.9,5.2,10.1,11,10.4
		c1.2,0.1,2.5-0.1,3.7-0.4c7.1-1.9,15.9-7.3,25.6-15.8c27.1-23.8,53.8-64.5,50.1-86.9c-1.9-12.1-9.3-19.1-20.7-19.7
		c-1.7-0.1-3.5,0-5.4,0.2c-27.5,3-72.1,45.8-88.2,64.9c-10.8,12.6-45.8,57-41.4,97C47,231.5,62.1,246,84,247.1
		c2.9,0.2,6,0.1,9.1-0.3c9.8-1.1,45.1-8.5,90.5-59.7c-0.5,4.5-0.9,14.4,3.2,19.4c2.2,2.8,5.5,3.7,9.6,2.8c3.7-0.8,7-5.4,12.5-13
		c7.2-10,18.1-25,37.8-42.2c-0.7,1.1-1.4,2.2-2.1,3.3c-7.3,11.5-17.3,27.3-15.9,39.7c0.6,5.5,4.1,11.2,10.6,11.5
		c0.6,0,1.2,0,1.9-0.1c8.1-1.3,34-15,38.8-17.6c4.6,13.4,14.5,20.7,26.7,19.3c32.7-3.7,65.5-53.4,68-57.4l21.8-7.4
		c-0.6,0.9-1.3,1.9-1.9,2.9c-7.4,10.8-15.7,23.1-14.2,37.1c0.8,7.6,6.6,16,15.6,16.4c0.8,0,1.6,0,2.5-0.1c9.4-1,23.4-15.3,31.6-24.5
		c0.7,6,4.1,26.2,20.2,27c1,0.1,2,0,3-0.1c10.6-1,24.7-10.9,31.9-16.2c5.2,10.3,14.1,15.4,24.6,14.3c24.3-2.7,46.5-28.9,57.5-44.2
		l0.2-0.3L563.7,148.1z M329.2,131.5c0.3,0,0.6,0.1,0.8,0.1c0.7,0.2,1,0.6,1,1.3c0.5,5.2-13,21.9-29.8,31.8
		C304.4,147.7,322.3,131.1,329.2,131.5z M532.1,123.4c0.3,0,0.5,0.1,0.6,0.1c0.1,0.1,0.8,0.4,0.9,1.5c0.3,2.6-1.9,10.8-29.2,32.3
		C511.5,128.7,528.2,123.2,532.1,123.4z"/>
	<path class="st0" d="M444.1,212c-195.3-10.2-377,50-396,58.9c-6.7,3.2-7.4,5.1-9.7,12.3c-0.3,0.9-0.6,1.8-0.9,2.9
		c-3.8,11.2-3.1,18-3.1,18.3c0,0.1,0.2,1.4,2.4,1.5c2.2,0.1,5.6-0.9,10.4-3c174.3-77.4,351-81.1,440.9-76.3
		c40.6,2.1,65.1,6,65.4,6.1l0.7,0.1l0.7-6.7l-0.6-0.1C519.5,218.7,482.4,214,444.1,212z"/>
	<path class="st0" d="M505.8,266.8c-2.8,0-11,4.3-11.3,2.4c-0.5-1.7,1.9-11.4,2.1-12.6c1.6-3.1,14.7-3.6,16.3-4.5
		c1.2-2.1,1.4-6,0.7-7.4c-4,1-41.9,8.6-42.4,9.6c-0.5,1.2,2.8,5.5,4.8,5c1.9-0.2,5.7-2.1,10.3-2.4c5.1,1.7,1,13.3,0.9,14.5
		c-3.9,1.9-10.3,2.9-12.9,4c0,1.4,3,5,4.3,4.8c1.2-0.2,6-1.9,6.6-1c0.7,1-3.5,18.1-3,21.4c0.4,1.7,4.1,3.8,5.5,3.8
		c0.7-7.4,4.8-25.3,5.1-26.2c3.5-4.3,12.4-4.5,13.5-5.2C507,271.1,507.5,267.8,505.8,266.8z"/>
	<path class="st0" d="M549.6,259.9c-2.1,2.4-11.9,18.8-11.9,18.8c1.4-9.5,3.4-18.8,3.2-19.8c-0.2-1.9-3.2-4.3-4.1-3.8
		c-3.4,5-14.2,22.4-14.2,22.4c4.1-16.2,4.8-26.2,4.8-26.2c-0.5-2.9-3.5-5.5-4.6-3.8c-2.4,2.5-15.7,14-15.7,14
		c1.4,2.1,3.7,3.1,4.4,2.9c0.7-0.2,6.4-4.3,6.9-4.8c-0.4,2.4-10.5,40.3-9.9,41.9c0.4,1.2,2.3,4.3,4.1,3.8l17.7-27.6
		c-0.5,5.2-2.1,15-2.3,16.7c0.4,2.1,0.2,5.7,4.4,6l13.6-21.7c-0.5,5-1.6,16.7-1.6,17.4c3.4-0.9,7.3-4,7.3-4
		c0.4-4.3,3.5-27.4,2.3-30.5C553.5,260.6,551,259.2,549.6,259.9z"/>
</g>
</svg>
