<?xml version="1.0" encoding="utf-8"?>
<!-- Generator: Adobe Illustrator 14.0.0, SVG Export Plug-In . SVG Version: 6.00 Build 43363)  -->
<!DOCTYPE svg PUBLIC "-//W3C//DTD SVG 1.1 Basic//EN" "http://www.w3.org/Graphics/SVG/1.1/DTD/svg11-basic.dtd">
<svg version="1.1" baseProfile="basic" id="Calque_1"
	 xmlns="http://www.w3.org/2000/svg" xmlns:xlink="http://www.w3.org/1999/xlink" x="0px" y="0px" width="105px" height="75px"
	 viewBox="0 0 105 75" xml:space="preserve">
<g>
	<rect x="-0.013" y="0.017" fill="#DF111F" width="105.09" height="75"/>
	<g>
		<g>
			<polyline fill="#FFFFFF" points="71.998,65.435 94.459,65.435 94.459,55.985 83.889,55.985 83.893,10.265 71.99,10.264 			"/>
			<path fill="#FFFFFF" d="M41.487,20.309c0.385,1.428,0.488,2.604,0.488,3.839c0,7.382-4.404,12.401-7.778,12.547
				c3.374,0,7.926,4.276,7.926,10.478c0,0.15,0,12.258,0,12.258c0.145,2.062,0.441,3.395,2.494,6.053H33.021
				c-1.321-1.039-2.348-2.955-2.348-5.467c0-2.506,0-14.609,0-14.609c0-3.844-3.233-5.613-7.193-5.023v25.1H11.15V10.272h18.494
				c5.146,0.083,8.264,2.628,10.133,5.942l-0.002-5.942h31.111v10.039h-9.246v45.173H49.461l-0.02-45.175 M23.629,27.1v5.168
				c4.696,0.146,7.045-1.822,7.045-6.792c0-4.873-2.495-6.347-7.045-6.347v13.139"/>
		</g>
	</g>
</g>
</svg>
