<?xml version="1.0" encoding="UTF-8" standalone="no"?>
<!-- Created with Inkscape (http://www.inkscape.org/) -->
<svg id="svg2" xmlns:rdf="http://www.w3.org/1999/02/22-rdf-syntax-ns#" xmlns="http://www.w3.org/2000/svg" height="549.21" width="549.21" version="1.1" xmlns:cc="http://creativecommons.org/ns#" xmlns:dc="http://purl.org/dc/elements/1.1/">
 <metadata id="metadata7">
  <rdf:RDF>
   <cc:Work rdf:about="">
    <dc:format>image/svg+xml</dc:format>
    <dc:type rdf:resource="http://purl.org/dc/dcmitype/StillImage"/>
   </cc:Work>
  </rdf:RDF>
 </metadata>
 <g id="layer1" transform="translate(-100.4 -257.75)">
  <path id="path2997" d="m100.4 806.96h460.63v-460.63h-460.63v460.63z" fill-rule="evenodd"/>
  <path id="path2999" d="m88.594 430.53l-20.313 1.56 0.281 40.38s24.447 1.26 30.219 1.62c5.759 0.37 11.909 0.49 13.749 7.44 1.99 7.54-6.9 13.06-9.91 13.06 9.1 0 7.06-0.03 13.88-0.03 5.56-1.02 11.86-7.69 11.06-17.65-1.05-13.16-11.15-16.29-21.9-16.29h-17.066v-30.09zm-48.188 38.19c-3.691 4.47-7.362 11.28-5.25 18.9 6.318 21.33 40.256 30.75 54.532 31.32l-1.688-24.97s-23.161 3.06-34.875-9.22c-4.972-5.2-3.992-10.67-0.25-15.41-4.383-0.2-9.522-0.49-12.469-0.62z" transform="translate(100.4 257.75)" fill="#fff"/>
  <path id="path3003" d="m188.97 718.38h460.63v-460.63h-460.63v460.63z" fill-rule="evenodd" fill="#e20134"/>
  <path id="path3005" d="m357.97 254.94c-3.59 0.08-7.36 1.49-9.41 4.56-1.72 2.62-1.59 6.28-1.59 9.31h-4.06v7.85h4.06v26.22h10.12v-26.22h6.19v-7.85h-6.19v-0.78c0-2.96-0.02-5.27 3.63-5.06l3.47 0.19v-7.78l-4.69-0.41c-0.5-0.04-1.02-0.04-1.53-0.03zm24.53 12.28c-3.86 0.15-5.72 3.73-6.69 7.22h-0.15v-6.53h-9.41v34.97h10.09v-13.35c0-6.19 0.98-12.47 8.69-12.06v-10.13l-1.72-0.12c-0.27-0.02-0.55-0.01-0.81 0zm21.66 0c-7.37 0-15.63 2.47-16.66 10.94l9.56 0.9c0-3.44 2.83-5.09 6.06-5.09 1.52 0 3.24 0.49 4.13 1.65 1.03 1.31 0.91 3.08 0.91 4.6v0.84c-4.27 0.42-9.86 0.68-13.85 2.19-4.61 1.72-7.84 5.25-7.84 10.41 0 6.6 4.81 9.9 11 9.9 5.23 0 8.26-1.99 11.15-6.12-0.06 1.79 0.06 3.64 0.47 5.44h10.07c-0.55-1.73-0.69-3.47-0.69-5.26v-16.31c0-4.19 0.33-8.05-3.25-10.93-2.82-2.34-7.49-3.16-11.06-3.16zm39.43 0c-5.09 0-7.99 2.12-10.06 6.59h-0.12v-5.9h-9.57v34.97h10.1v-18.79c0-2.2 0.15-4.22 1.18-6.21 0.83-1.59 2.47-2.6 4.26-2.6 5.09 0 4.62 5.24 4.62 8.81v18.79h10.12v-21.63c0-3.17-0.01-7.57-1.93-10.19-2.07-2.82-5.29-3.84-8.6-3.84zm32 0c-11.01 0-17.5 7.76-17.5 18.5 0 10.32 6.28 17.84 16.88 17.84 8.53 0 15.05-5.17 15.87-13.84l-9.62-0.56c-0.34 3.23-2.14 6.06-5.72 6.06-5.78 0-5.84-6.05-5.84-10.31 0-4.48 0.7-9.97 6.28-9.97 3.64 0 5.28 3.08 5.28 6.25l9.62-0.57c-0.68-8.18-7.12-13.4-15.25-13.4zm35.29 0c-10.88 0-17 8.33-17 18.66 0 10.39 6.82 17.68 17.28 17.68 11.83 0 15.9-10.34 15.9-12.06l-9.37-0.69c0 3.24-3.09 5.53-6.19 5.53-4.4 0-6.75-3.37-6.75-7.5l0.06-1.75h22.44c0.07-4.74-0.67-9.69-3.56-13.68s-7.93-6.19-12.81-6.19zm0.4 6.59c4.4 0 5.67 3.53 5.88 7.31h-12.41c0.35-3.99 2.06-7.31 6.53-7.31zm-400.56 6.07v32.37h33.5v-32.37h-33.5zm297.44 6.28v1.37c0 2.48 0.07 4.52-1.38 6.72-1.17 1.79-3.03 2.91-5.09 2.91-2.82 0-4.5-1.88-4.5-4.63 0-5.09 7.11-5.96 10.97-6.37zm-90.07 0.09l-29.18 2.28-2.94 33.97h-20.28v26.66h18.9v51.03c0 11.39 0 25.31 9.35 33.06 7.52 6.15 20.27 7.5 29.84 7.5 6.15 0 12.31-1.12 18.69-2.03l2.28-0.47v-25.28l-10.47 0.44c-16.18 0.68-16.19-4.78-16.19-18.22v-46.03h24.85v-26.66h-24.85v-36.25zm200.63 34.13c-12.78 0.5-18.98 12.46-22.19 24h-0.47v-21.66h-31.22v115.78h33.5v-44.22c0-20.51 3.2-41.24 28.72-39.87v-33.5l-5.68-0.47c-0.92-0.07-1.81-0.1-2.66-0.06zm-295.88 0.06c-16.86 0-26.44 7.06-33.28 21.87h-0.47v-19.59h-31.65v115.78h33.5v-62.22c0-7.29 0.45-13.92 3.87-20.53 2.74-5.24 8.2-8.66 14.13-8.66 16.86 0 15.25 17.34 15.25 29.19v62.22h33.5v-71.56c0-10.48 0-25.09-6.38-33.75-6.83-9.35-17.53-12.75-28.47-12.75zm178.88 0c-36.01 0-56.28 27.56-56.28 61.75 0 34.41 22.55 58.56 57.18 58.56 39.2 0 52.66-34.18 52.66-39.87l-31-2.29c0 10.72-10.24 18.25-20.5 18.25-14.58 0-22.34-11.17-22.34-24.84l0.22-5.69h74.31c0.23-15.72-2.31-32.15-11.88-45.37s-26.19-20.5-42.37-20.5zm-291 2.28v115.78h33.5v-115.78h-33.5zm292.37 19.59c14.59 0 18.69 11.63 19.38 24.16h-41.03c1.14-13.22 6.84-24.16 21.65-24.16z" transform="translate(100.4 257.75)" fill="#fff"/>
 </g>
</svg>
