<?xml version="1.0" encoding="UTF-8"?>

<svg version="1.2" baseProfile="tiny" width="210mm" height="210mm" viewBox="0 0 21000 21000" preserveAspectRatio="xMidYMid" fill-rule="evenodd" stroke-width="28.222" stroke-linejoin="round" xmlns="http://www.w3.org/2000/svg" xmlns:ooo="http://xml.openoffice.org/svg/export" xmlns:xlink="http://www.w3.org/1999/xlink" xml:space="preserve">
 <defs class="ClipPathGroup">
  <clipPath id="presentation_clip_path" clipPathUnits="userSpaceOnUse">
   <rect x="0" y="0" width="21000" height="21000"/>
  </clipPath>
 </defs>
 <defs class="TextShapeIndex">
  <g ooo:slide="id1" ooo:id-list="id3 id4 id5 id6 id7 id8 id9 id10 id11 id12 id13 id14 id15 id16 id17 id18 id19 id20"/>
 </defs>
 <defs class="EmbeddedBulletChars">
  <g id="bullet-char-template(57356)" transform="scale(0.00048828125,-0.00048828125)">
   <path d="M 580,1141 L 1163,571 580,0 -4,571 580,1141 Z"/>
  </g>
  <g id="bullet-char-template(57354)" transform="scale(0.00048828125,-0.00048828125)">
   <path d="M 8,1128 L 1137,1128 1137,0 8,0 8,1128 Z"/>
  </g>
  <g id="bullet-char-template(10146)" transform="scale(0.00048828125,-0.00048828125)">
   <path d="M 174,0 L 602,739 174,1481 1456,739 174,0 Z M 1358,739 L 309,1346 659,739 1358,739 Z"/>
  </g>
  <g id="bullet-char-template(10132)" transform="scale(0.00048828125,-0.00048828125)">
   <path d="M 2015,739 L 1276,0 717,0 1260,543 174,543 174,936 1260,936 717,1481 1274,1481 2015,739 Z"/>
  </g>
  <g id="bullet-char-template(10007)" transform="scale(0.00048828125,-0.00048828125)">
   <path d="M 0,-2 C -7,14 -16,27 -25,37 L 356,567 C 262,823 215,952 215,954 215,979 228,992 255,992 264,992 276,990 289,987 310,991 331,999 354,1012 L 381,999 492,748 772,1049 836,1024 860,1049 C 881,1039 901,1025 922,1006 886,937 835,863 770,784 769,783 710,716 594,584 L 774,223 C 774,196 753,168 711,139 L 727,119 C 717,90 699,76 672,76 641,76 570,178 457,381 L 164,-76 C 142,-110 111,-127 72,-127 30,-127 9,-110 8,-76 1,-67 -2,-52 -2,-32 -2,-23 -1,-13 0,-2 Z"/>
  </g>
  <g id="bullet-char-template(10004)" transform="scale(0.00048828125,-0.00048828125)">
   <path d="M 285,-33 C 182,-33 111,30 74,156 52,228 41,333 41,471 41,549 55,616 82,672 116,743 169,778 240,778 293,778 328,747 346,684 L 369,508 C 377,444 397,411 428,410 L 1163,1116 C 1174,1127 1196,1133 1229,1133 1271,1133 1292,1118 1292,1087 L 1292,965 C 1292,929 1282,901 1262,881 L 442,47 C 390,-6 338,-33 285,-33 Z"/>
  </g>
  <g id="bullet-char-template(9679)" transform="scale(0.00048828125,-0.00048828125)">
   <path d="M 813,0 C 632,0 489,54 383,161 276,268 223,411 223,592 223,773 276,916 383,1023 489,1130 632,1184 813,1184 992,1184 1136,1130 1245,1023 1353,916 1407,772 1407,592 1407,412 1353,268 1245,161 1136,54 992,0 813,0 Z"/>
  </g>
  <g id="bullet-char-template(8226)" transform="scale(0.00048828125,-0.00048828125)">
   <path d="M 346,457 C 273,457 209,483 155,535 101,586 74,649 74,723 74,796 101,859 155,911 209,963 273,989 346,989 419,989 480,963 531,910 582,859 608,796 608,723 608,648 583,586 532,535 482,483 420,457 346,457 Z"/>
  </g>
  <g id="bullet-char-template(8211)" transform="scale(0.00048828125,-0.00048828125)">
   <path d="M -4,459 L 1135,459 1135,606 -4,606 -4,459 Z"/>
  </g>
 </defs>
 <defs class="TextEmbeddedBitmaps"/>
 <g>
  <g id="id2" class="Master_Slide">
   <g id="bg-id2" class="Background"/>
   <g id="bo-id2" class="BackgroundObjects"/>
  </g>
 </g>
 <g class="SlideGroup">
  <g>
   <g id="id1" class="Slide" clip-path="url(#presentation_clip_path)">
    <g class="Page">
     <g class="Group">
      <g class="com.sun.star.drawing.PolyPolygonShape">
       <g id="id3">
        <path fill="rgb(255,255,255)" stroke="none" d="M 3219,0 L 3219,3215 0,3215 0,21000 17785,21000 17785,17785 21000,17785 21000,0 3219,0 Z"/>
       </g>
      </g>
      <g class="com.sun.star.drawing.PolyPolygonShape">
       <g id="id4">
        <path fill="rgb(0,0,0)" stroke="none" d="M 537,3748 L 17252,3748 17252,20467 537,20467 537,3748 Z"/>
       </g>
      </g>
      <g class="com.sun.star.drawing.ClosedBezierShape">
       <g id="id5">
        <path fill="rgb(255,255,255)" stroke="none" d="M 3013,16212 L 3756,16159 3756,17252 4373,17252 C 4765,17252 5131,17366 5169,17842 5200,18204 4971,18448 4769,18482 4521,18482 4594,18486 4262,18486 4373,18486 4697,18284 4624,18010 4556,17758 4335,17755 4125,17739 3916,17728 3024,17682 3024,17682 L 3013,16212 Z"/>
       </g>
      </g>
      <g class="com.sun.star.drawing.ClosedBezierShape">
       <g id="id6">
        <path fill="rgb(255,255,255)" stroke="none" d="M 2004,17541 C 1871,17705 1734,17953 1814,18231 2043,19008 3277,19347 3795,19370 L 3734,18463 C 3734,18463 2892,18574 2465,18128 2283,17934 2321,17736 2458,17564 2298,17557 2111,17545 2004,17541 Z"/>
       </g>
      </g>
      <g class="com.sun.star.drawing.PolyPolygonShape">
       <g id="id7">
        <path fill="rgb(177,0,73)" stroke="none" d="M 3752,537 L 20467,537 20467,17252 3752,17252 3752,537 Z"/>
       </g>
      </g>
      <g class="com.sun.star.drawing.ClosedBezierShape">
       <g id="id8">
        <path fill="rgb(255,255,255)" stroke="none" d="M 5131,13003 L 4723,13003 4723,11940 4556,11940 4556,11620 4723,11620 C 4723,11498 4720,11354 4788,11247 4883,11106 5070,11049 5230,11064 L 5420,11079 5420,11396 5280,11384 C 5131,11377 5131,11472 5131,11590 L 5131,11620 5382,11620 5382,11940 5131,11940 5131,13003 Z"/>
       </g>
      </g>
      <g class="com.sun.star.drawing.ClosedBezierShape">
       <g id="id9">
        <path fill="rgb(255,255,255)" stroke="none" d="M 5923,11585 L 5923,11851 5931,11851 C 5973,11703 6057,11543 6232,11558 L 6304,11562 6304,11973 C 5992,11958 5954,12209 5954,12461 L 5954,13002 5539,13002 5539,11585 5923,11585 Z"/>
       </g>
      </g>
      <g class="com.sun.star.drawing.ClosedBezierShape">
       <g id="id10">
        <path fill="rgb(255,255,255)" stroke="none" d="M 7226,12323 C 7070,12342 6784,12376 6784,12582 6784,12692 6849,12772 6963,12772 7047,12772 7123,12723 7169,12650 7226,12563 7226,12479 7226,12380 L 7226,12323 Z M 7264,13005 C 7245,12932 7241,12856 7245,12784 7127,12951 7005,13031 6796,13031 6544,13031 6350,12898 6350,12627 6350,12418 6479,12277 6666,12208 6826,12147 7051,12136 7226,12117 L 7226,12087 C 7226,12022 7230,11949 7188,11900 7154,11850 7081,11831 7020,11831 6891,11831 6777,11900 6777,12037 L 6392,12003 C 6434,11660 6765,11561 7062,11561 7207,11561 7397,11591 7516,11687 7660,11805 7645,11961 7645,12128 L 7645,12791 C 7645,12864 7649,12932 7672,13005 L 7264,13005 Z"/>
       </g>
      </g>
      <g class="com.sun.star.drawing.ClosedBezierShape">
       <g id="id11">
        <path fill="rgb(255,255,255)" stroke="none" d="M 8235,11588 L 8235,11827 8243,11827 C 8327,11645 8445,11561 8651,11561 8784,11561 8913,11603 8997,11713 9077,11820 9077,11999 9077,12125 L 9077,13005 8670,13005 8670,12239 C 8670,12094 8689,11885 8483,11885 8411,11885 8338,11927 8304,11991 8262,12071 8258,12151 8258,12239 L 8258,13005 7851,13005 7851,11588 8235,11588 Z"/>
       </g>
      </g>
      <g class="com.sun.star.drawing.ClosedBezierShape">
       <g id="id12">
        <path fill="rgb(255,255,255)" stroke="none" d="M 10140,12125 C 10140,11995 10071,11869 9927,11869 9702,11869 9672,12094 9672,12273 9672,12445 9675,12692 9908,12692 10052,12692 10125,12578 10140,12445 L 10532,12467 C 10498,12822 10235,13031 9889,13031 9458,13031 9207,12723 9207,12307 9207,11873 9466,11561 9911,11561 10243,11561 10506,11770 10532,12102 L 10140,12125 Z"/>
       </g>
      </g>
      <g class="com.sun.star.drawing.ClosedBezierShape">
       <g id="id13">
        <path fill="rgb(255,255,255)" stroke="none" d="M 11557,12121 C 11549,11968 11500,11827 11321,11827 11142,11827 11073,11961 11058,12121 L 11557,12121 Z M 11062,12361 L 11058,12433 C 11058,12597 11153,12738 11332,12738 11454,12738 11580,12643 11580,12513 L 11957,12540 C 11957,12608 11793,13031 11317,13031 10894,13031 10616,12738 10616,12311 10616,11896 10864,11561 11306,11561 11504,11561 11706,11648 11824,11808 11938,11972 11968,12170 11968,12361 L 11062,12361 Z"/>
       </g>
      </g>
      <g class="com.sun.star.drawing.ClosedBezierShape">
       <g id="id14">
        <path fill="rgb(255,255,255)" stroke="none" d="M 5173,13614 L 5173,13961 5180,13961 C 5299,13694 5516,13568 5809,13568 6106,13568 6293,13694 6426,13961 6540,13694 6807,13568 7085,13568 7287,13568 7504,13641 7637,13801 7786,13980 7755,14239 7755,14467 L 7755,15873 7104,15873 7104,14681 C 7104,14589 7112,14368 7089,14284 7055,14140 6948,14098 6811,14098 6693,14098 6571,14166 6521,14277 6472,14380 6479,14559 6479,14681 L 6479,15873 5824,15873 5824,14681 C 5824,14444 5870,14094 5531,14094 5192,14094 5203,14433 5203,14681 L 5203,15873 4552,15873 4552,13614 5173,13614 Z"/>
       </g>
      </g>
      <g class="com.sun.star.drawing.ClosedBezierShape">
       <g id="id15">
        <path fill="rgb(255,255,255)" stroke="none" d="M 9310,15873 L 9310,15488 9302,15488 C 9196,15770 8959,15919 8655,15919 8426,15919 8232,15869 8102,15663 7981,15469 7992,15256 7992,15039 L 7992,13614 8643,13614 8643,15039 C 8643,15221 8662,15393 8895,15393 9039,15393 9169,15309 9226,15176 9272,15073 9260,14947 9260,14829 L 9260,13614 9916,13614 9916,15873 9310,15873 Z"/>
       </g>
      </g>
      <g class="com.sun.star.drawing.ClosedBezierShape">
       <g id="id16">
        <path fill="rgb(255,255,255)" stroke="none" d="M 11473,14288 C 11416,14075 11245,13987 11035,13987 10902,13987 10696,14022 10696,14185 10696,14608 12052,14128 12052,15145 12052,15381 11942,15595 11751,15732 11549,15873 11294,15919 11047,15919 10574,15919 10136,15759 10018,15248 L 10582,15168 C 10624,15401 10868,15473 11077,15473 11203,15473 11473,15431 11473,15256 11473,15107 11340,15081 11222,15065 11066,15046 10692,14981 10551,14932 10285,14841 10106,14608 10106,14323 10106,13770 10590,13568 11069,13568 11515,13568 11805,13740 11961,14159 L 11473,14288 Z"/>
       </g>
      </g>
      <g class="com.sun.star.drawing.PolyPolygonShape">
       <g id="id17">
        <path fill="rgb(255,255,255)" stroke="none" d="M 12894,15873 L 12235,15873 12235,13618 12894,13618 12894,15873 Z M 12894,13408 L 12235,13408 12235,12780 12894,12780 12894,13408 Z"/>
       </g>
      </g>
      <g class="com.sun.star.drawing.ClosedBezierShape">
       <g id="id18">
        <path fill="rgb(255,255,255)" stroke="none" d="M 14494,14547 C 14494,14311 14429,14018 14136,14018 13774,14018 13770,14482 13770,14738 13770,14894 13770,15111 13831,15248 13881,15362 13995,15454 14124,15454 14235,15454 14342,15374 14399,15279 14479,15161 14494,15020 14494,14882 L 14494,14547 Z M 15134,13983 L 15134,16631 14479,16631 14479,15633 C 14349,15820 14208,15915 13964,15915 13286,15915 13077,15321 13077,14738 13077,14155 13325,13568 13991,13568 14296,13568 14479,13660 14639,13930 14715,13831 14772,13728 14810,13614 L 15168,13614 15134,13983 Z"/>
       </g>
      </g>
      <g class="com.sun.star.drawing.ClosedBezierShape">
       <g id="id19">
        <path fill="rgb(255,255,255)" stroke="none" d="M 16723,15873 L 16723,15488 16711,15488 C 16605,15770 16376,15919 16068,15919 15843,15919 15649,15869 15519,15663 15393,15469 15409,15256 15409,15039 L 15409,13614 16060,13614 16060,15039 C 16060,15221 16079,15393 16308,15393 16456,15393 16578,15309 16639,15176 16681,15073 16673,14947 16673,14829 L 16673,13614 17329,13614 17329,15873 16723,15873 Z"/>
       </g>
      </g>
      <g class="com.sun.star.drawing.ClosedBezierShape">
       <g id="id20">
        <path fill="rgb(255,255,255)" stroke="none" d="M 19027,14467 C 19012,14223 18932,13995 18646,13995 18360,13995 18246,14208 18223,14467 L 19027,14467 Z M 18227,14852 L 18223,14962 C 18223,15229 18375,15450 18661,15450 18859,15450 19061,15301 19061,15092 L 19663,15138 C 19663,15248 19404,15919 18638,15919 17960,15919 17518,15446 17518,14772 17518,14105 17915,13568 18619,13568 18935,13568 19259,13713 19446,13968 19633,14227 19682,14547 19678,14852 L 18227,14852 Z"/>
       </g>
      </g>
     </g>
    </g>
   </g>
  </g>
 </g>
</svg>