<svg xmlns="http://www.w3.org/2000/svg" id="Calque_1" x="0" y="0" version="1.1" viewBox="0 0 467.4 467.4" xml:space="preserve">
  <style>
    .st1{fill:#e41e13}.st2{fill:#feeb17;stroke:#09040a;stroke-width:1.7913;stroke-miterlimit:10}
  </style>
  <path fill="#fff" d="M0 0h467.4v467.4H0z"/>
  <path d="M94.4 228.4l11.3-12c11.4-12.2 31.8-31.9 31-56.9-.7-25-28.7-25-28.7-25-27.3-3.7-79.5 37.1-79.5 37.1l-9.9 131 37.3-7 2-45.7 50.8 44.4 36.4-39.4-50.7-26.5zM87.6 186c-1.7 17.4-27.5 31-27.5 31l1.7-28c27.1-17 25.8-3 25.8-3zM275.5 228.5s30.7-18.3 41.5-37.1c10.7-18.9 17.4-45-1.6-55.2-22.3-12-43.5-2.7-43.5-2.7-29.6 11.4-29.7 11.3-54 21.8l-4.8 28.1-21 109.7 37.1-1.6 6-49 50.5 56 44.7-20.5s-51.7-50-55-49.5zm-32.1-14.9l5-30c1.8-1.1 17-7 21.2-7 4.2 0 9.6.6 5.6 12.6s-31.8 24.4-31.8 24.4z" class="st1"/>
  <path d="M340.8 147.2l-38 144-.5 3.6 113-2.6L439 248l-1.5-5.7-72.5 4.1 5.1-18.5 43.7-6.1 15-32s2-6-4.2-5.6c-6.1.6-45.2 5.7-45.2 5.7l4.1-18 53-7.7 5.6-3.6 10.8-30.4-2-3.6L346.2 142s-3.8.2-5.4 5.3zM154.6 153l-18 132.2s-2.6 10.8 7.8 10.6l31.6-1s7.3 0 9.2-11.2c1.4-8.6 1.4-8.6 18.2-135 0 0 2.7-12.8-7-11.3-9.6 1.4-9.6 1.4-35 6 0 0-5 .4-6.8 9.6z" class="st1"/>
  <path d="M39.4 368.8c-9.8 0-16.1-5.4-16.1-13.9 0-6.5 3.6-12.1 10.2-16-1-2.2-1.9-5.2-1-9.6 1.8-8.3 10.5-13.2 17.8-13.2 4.3 0 8 1.4 10.3 4.1 1.5 1.7 3.1 4.9 2.4 10-.5 3.3-2.1 5.9-4.2 7.9h11.3l-.4 3a32 32 0 01-7 15.4l6.2 7 4 4.4H55l-2.5-2.8a26.1 26.1 0 01-13 3.7zm12.3-26.1l2.9 4c1-2 1.8-4.1 2-6.3l.1-.6a29.8 29.8 0 01-5 2.9zm-12.2 3a7.2 7.2 0 00-4.2 6.5c0 3.7 2.5 6.3 6.3 6.3 2.5 0 4.4-.9 6-1.9-3.4-4-6-7.6-8-10.8zm9.6-20.5c-2.5 0-4.7 2-5.2 4.6-.6 2.8.4 4.6 1.4 6.3 3.8-1.8 6.5-3.5 6.8-6.9 0-1.2-.3-2.5-1-3.2-.5-.6-1.1-.8-2-.8zM101.2 369c-12 0-20.5-8.8-20.5-21.2a30.6 30.6 0 0143.5-28.5l2.4 1.2-6.7 12.7-2.4-1.4c-1.8-1.1-4.8-1.9-7.5-1.9-9.6 0-14 8.8-14 17 0 5.6 2.9 8.6 8.2 8.6 2.7 0 5.9-.8 7.9-1.9l3.2-1.8 2.4 12.9-1.8.9c-2 1-7.4 3.3-14.8 3.3zM163.5 368h-15l4.3-20.1h-13.6l-4.3 20h-15l10.8-50.5h15l-3.8 17.4h13.7l3.7-17.4h15L163.4 368zM262 368H250l-12-24-5.1 24h-14.3l10.7-50.6h12l12 25.1 5.3-25h14.3L262 367.8zM281.9 369c-3.8 0-9.3-.6-14.2-3.3l-2.1-1.1 5.6-12.8 2.7 1.9c1.5 1 5.2 2.6 8.8 2.6 1.4 0 6-.3 6-3.1 0-1.4-1.3-2.4-4.1-4.1l-.7-.5c-7.3-4.4-10.8-9.3-10.8-14.9 0-12.8 10.8-17.3 20-17.3h1c4.3.1 8.4 1 12.1 2.6l2.5 1-5.6 12.8-2.6-1.5c-2.2-1.4-5.2-2.1-8-2.1-5 0-5 1.5-5 2.1 0 1.2 1 2 3.6 3.6l1.2.7c5.6 3.7 10.7 7.6 10.7 15.1 0 11.3-8.1 18.2-21.1 18.2zM395.2 368h-12.1l-12-24-5.1 24h-14.3l10.7-50.6h12l12 25.1 5.3-25H406l-10.8 50.4zM416.2 369c-3.7 0-9.2-.6-14-3.3l-2.2-1.1 5.6-12.8 2.7 1.9c1.4 1 5.2 2.6 8.8 2.6 1.4 0 6-.3 6-3.1 0-1.4-1.4-2.4-4.2-4.1l-.7-.5c-7.2-4.4-10.8-9.3-10.8-14.9 0-12.8 10.8-17.3 20-17.3h1.1c4.3.1 6.9 1 10.6 2.6l2.5 1-4.2 12.8-2.5-1.5c-2.3-1.4-5.2-2.1-8.1-2.1-5 0-5 1.6-5 2.1 0 1.3 1.4 2.3 3.6 3.6l1.2.7c5.7 3.7 10.7 7.6 10.7 15.1 0 11.3-8 18.2-21 18.2zM209 318l-.2-.6h-14.4l-28.3 50.5h15.5l4.7-8.7h13.1l1 8.7h15.4l-6.9-50zm-19.7 30l9-14.2L200 348h-10.6zM334.6 316c-18 0-28.7 16.8-28.7 33 0 12.5 7.4 20 19.8 20 18 0 28.7-16.9 28.7-33.2 0-12.3-7.4-19.7-19.8-19.7zm-7.9 41.3c-4.7 0-7.1-3-7.1-9 0-8.6 4.3-20.7 14-20.7 4.8 0 7.1 3 7.1 8.8 0 8.7-4.3 20.9-14 20.9z" class="st2"/>
  <circle cx="180.2" cy="100.8" r="26.1" class="st1"/>
</svg>
